<mxfile host="app.diagrams.net" modified="2024-01-08T18:45:26.476Z" agent="Mozilla/5.0 (Windows NT 10.0; Win64; x64) AppleWebKit/537.36 (KHTML, like Gecko) Chrome/120.0.0.0 Safari/537.36" etag="LdYB9aOzgsN0N1H8Sjd_" version="22.1.15" type="device">
  <diagram name="Page-1" id="nYNI6ww4IUiXgmEoycRB">
    <mxGraphModel dx="1018" dy="611" grid="1" gridSize="10" guides="1" tooltips="1" connect="1" arrows="1" fold="1" page="1" pageScale="1" pageWidth="850" pageHeight="1100" math="0" shadow="0">
      <root>
        <mxCell id="0" />
        <mxCell id="1" parent="0" />
        <mxCell id="X3G0P4HK935rcP5DGGmM-17" style="rounded=0;orthogonalLoop=1;jettySize=auto;html=1;exitX=1;exitY=0;exitDx=0;exitDy=0;entryX=0;entryY=0.25;entryDx=0;entryDy=0;" edge="1" parent="1" source="X3G0P4HK935rcP5DGGmM-2" target="X3G0P4HK935rcP5DGGmM-7">
          <mxGeometry relative="1" as="geometry" />
        </mxCell>
        <mxCell id="X3G0P4HK935rcP5DGGmM-22" style="rounded=0;orthogonalLoop=1;jettySize=auto;html=1;exitX=0;exitY=1;exitDx=0;exitDy=0;entryX=1;entryY=0.75;entryDx=0;entryDy=0;" edge="1" parent="1" source="X3G0P4HK935rcP5DGGmM-2" target="X3G0P4HK935rcP5DGGmM-5">
          <mxGeometry relative="1" as="geometry" />
        </mxCell>
        <mxCell id="X3G0P4HK935rcP5DGGmM-2" value="&lt;b&gt;MQTT Broker&lt;br&gt;&lt;/b&gt;&lt;font style=&quot;font-size: 9px;&quot;&gt;(mosquitto)&lt;/font&gt;&lt;br&gt;&lt;font color=&quot;#3d3d3d&quot;&gt;topics:[ballstatus, coordinate]&lt;/font&gt;" style="ellipse;whiteSpace=wrap;html=1;" vertex="1" parent="1">
          <mxGeometry x="290" y="345" width="120" height="70" as="geometry" />
        </mxCell>
        <mxCell id="X3G0P4HK935rcP5DGGmM-4" style="edgeStyle=orthogonalEdgeStyle;rounded=0;orthogonalLoop=1;jettySize=auto;html=1;exitX=0.5;exitY=1;exitDx=0;exitDy=0;entryX=0.5;entryY=0;entryDx=0;entryDy=0;endArrow=none;endFill=0;startArrow=classic;startFill=1;" edge="1" parent="1" source="X3G0P4HK935rcP5DGGmM-3" target="X3G0P4HK935rcP5DGGmM-2">
          <mxGeometry relative="1" as="geometry" />
        </mxCell>
        <mxCell id="X3G0P4HK935rcP5DGGmM-3" value="Broker Interface&lt;br&gt;localhost:8088" style="rounded=0;whiteSpace=wrap;html=1;fontStyle=1" vertex="1" parent="1">
          <mxGeometry x="290" y="240" width="120" height="60" as="geometry" />
        </mxCell>
        <mxCell id="X3G0P4HK935rcP5DGGmM-20" style="rounded=0;orthogonalLoop=1;jettySize=auto;html=1;exitX=1;exitY=0.25;exitDx=0;exitDy=0;entryX=0;entryY=0;entryDx=0;entryDy=0;" edge="1" parent="1" source="X3G0P4HK935rcP5DGGmM-5" target="X3G0P4HK935rcP5DGGmM-2">
          <mxGeometry relative="1" as="geometry" />
        </mxCell>
        <mxCell id="X3G0P4HK935rcP5DGGmM-5" value="PSoC 6" style="rounded=1;whiteSpace=wrap;html=1;fontStyle=1" vertex="1" parent="1">
          <mxGeometry x="70" y="330" width="120" height="100" as="geometry" />
        </mxCell>
        <mxCell id="X3G0P4HK935rcP5DGGmM-18" style="rounded=0;orthogonalLoop=1;jettySize=auto;html=1;exitX=0;exitY=0.75;exitDx=0;exitDy=0;entryX=1;entryY=1;entryDx=0;entryDy=0;" edge="1" parent="1" source="X3G0P4HK935rcP5DGGmM-7" target="X3G0P4HK935rcP5DGGmM-2">
          <mxGeometry relative="1" as="geometry" />
        </mxCell>
        <mxCell id="X3G0P4HK935rcP5DGGmM-31" style="edgeStyle=orthogonalEdgeStyle;rounded=0;orthogonalLoop=1;jettySize=auto;html=1;exitX=1;exitY=0.25;exitDx=0;exitDy=0;entryX=0;entryY=0.25;entryDx=0;entryDy=0;" edge="1" parent="1" source="X3G0P4HK935rcP5DGGmM-7" target="X3G0P4HK935rcP5DGGmM-9">
          <mxGeometry relative="1" as="geometry" />
        </mxCell>
        <mxCell id="X3G0P4HK935rcP5DGGmM-7" value="NodeJS Server&lt;br&gt;(backend)" style="rounded=1;whiteSpace=wrap;html=1;fontStyle=1" vertex="1" parent="1">
          <mxGeometry x="520" y="332.5" width="120" height="95" as="geometry" />
        </mxCell>
        <mxCell id="X3G0P4HK935rcP5DGGmM-33" style="edgeStyle=orthogonalEdgeStyle;rounded=0;orthogonalLoop=1;jettySize=auto;html=1;exitX=0;exitY=0.75;exitDx=0;exitDy=0;entryX=1;entryY=0.75;entryDx=0;entryDy=0;" edge="1" parent="1" source="X3G0P4HK935rcP5DGGmM-9" target="X3G0P4HK935rcP5DGGmM-7">
          <mxGeometry relative="1" as="geometry" />
        </mxCell>
        <mxCell id="X3G0P4HK935rcP5DGGmM-9" value="Frontend" style="rounded=0;whiteSpace=wrap;html=1;fontStyle=1" vertex="1" parent="1">
          <mxGeometry x="750" y="330" width="120" height="97.5" as="geometry" />
        </mxCell>
        <mxCell id="X3G0P4HK935rcP5DGGmM-23" style="edgeStyle=orthogonalEdgeStyle;rounded=0;orthogonalLoop=1;jettySize=auto;html=1;exitX=0;exitY=0.5;exitDx=0;exitDy=0;entryX=0.5;entryY=1;entryDx=0;entryDy=0;startArrow=classic;startFill=1;" edge="1" parent="1" source="X3G0P4HK935rcP5DGGmM-14" target="X3G0P4HK935rcP5DGGmM-5">
          <mxGeometry relative="1" as="geometry" />
        </mxCell>
        <mxCell id="X3G0P4HK935rcP5DGGmM-14" value="Physical ball balancing table" style="swimlane;whiteSpace=wrap;html=1;startSize=20;" vertex="1" parent="1">
          <mxGeometry x="250" y="480" width="360" height="160" as="geometry">
            <mxRectangle x="200" y="460" width="200" height="30" as="alternateBounds" />
          </mxGeometry>
        </mxCell>
        <mxCell id="X3G0P4HK935rcP5DGGmM-15" value="Touchscreen" style="rounded=0;whiteSpace=wrap;html=1;fontStyle=0" vertex="1" parent="X3G0P4HK935rcP5DGGmM-14">
          <mxGeometry x="30" y="60" width="120" height="60" as="geometry" />
        </mxCell>
        <mxCell id="X3G0P4HK935rcP5DGGmM-16" value="3 Servos" style="rounded=0;whiteSpace=wrap;html=1;fontStyle=0" vertex="1" parent="X3G0P4HK935rcP5DGGmM-14">
          <mxGeometry x="210" y="60" width="120" height="60" as="geometry" />
        </mxCell>
        <mxCell id="X3G0P4HK935rcP5DGGmM-26" value="is subscribed to:&lt;br&gt;&quot;coordinate&quot;" style="text;html=1;strokeColor=none;fillColor=none;align=center;verticalAlign=middle;whiteSpace=wrap;rounded=0;" vertex="1" parent="1">
          <mxGeometry x="190" y="410" width="100" height="30" as="geometry" />
        </mxCell>
        <mxCell id="X3G0P4HK935rcP5DGGmM-27" value="publishes to:&lt;br&gt;&quot;coordinate&quot;" style="text;html=1;strokeColor=none;fillColor=none;align=center;verticalAlign=middle;whiteSpace=wrap;rounded=0;" vertex="1" parent="1">
          <mxGeometry x="420" y="410" width="100" height="30" as="geometry" />
        </mxCell>
        <mxCell id="X3G0P4HK935rcP5DGGmM-28" value="is subscribed to:&lt;br&gt;&quot;ballstatus&quot;" style="text;html=1;strokeColor=none;fillColor=none;align=center;verticalAlign=middle;whiteSpace=wrap;rounded=0;" vertex="1" parent="1">
          <mxGeometry x="425" y="320" width="100" height="30" as="geometry" />
        </mxCell>
        <mxCell id="X3G0P4HK935rcP5DGGmM-29" value="publishes to:&lt;br&gt;&quot;ballstatus&quot;" style="text;html=1;strokeColor=none;fillColor=none;align=center;verticalAlign=middle;whiteSpace=wrap;rounded=0;" vertex="1" parent="1">
          <mxGeometry x="180" y="320" width="100" height="30" as="geometry" />
        </mxCell>
        <mxCell id="X3G0P4HK935rcP5DGGmM-34" value="Web Socket" style="text;html=1;strokeColor=none;fillColor=none;align=center;verticalAlign=middle;whiteSpace=wrap;rounded=0;" vertex="1" parent="1">
          <mxGeometry x="650" y="330" width="80" height="30" as="geometry" />
        </mxCell>
        <mxCell id="X3G0P4HK935rcP5DGGmM-35" value="POST request" style="text;html=1;strokeColor=none;fillColor=none;align=center;verticalAlign=middle;whiteSpace=wrap;rounded=0;" vertex="1" parent="1">
          <mxGeometry x="660" y="397.5" width="80" height="30" as="geometry" />
        </mxCell>
        <mxCell id="X3G0P4HK935rcP5DGGmM-36" value="Breadboard and jumper wires" style="text;html=1;strokeColor=none;fillColor=none;align=center;verticalAlign=middle;whiteSpace=wrap;rounded=0;" vertex="1" parent="1">
          <mxGeometry x="130" y="530" width="110" height="30" as="geometry" />
        </mxCell>
      </root>
    </mxGraphModel>
  </diagram>
</mxfile>
